<svg width="2434" height="512" viewBox="0 0 2434 512" fill="none" xmlns="http://www.w3.org/2000/svg">
<g clip-path="url(#clip0_616_59)">
<rect width="512" height="512" rx="50" fill="#0056A4"/>
<rect x="134" y="137" width="25" height="250" rx="12.5" transform="rotate(-90 134 137)" fill="#FAFAFA"/>
<rect x="218" y="125" width="25" height="250" rx="12.5" fill="#FAFAFA"/>
<circle cx="96.7104" cy="124.711" r="40" transform="rotate(45 96.7104 124.711)" stroke="#FAFAFA" stroke-width="20"/>
<circle cx="415.71" cy="124.711" r="40" transform="rotate(45 415.71 124.711)" stroke="#FAFAFA" stroke-width="20"/>
<circle cx="230.71" cy="408.711" r="40" transform="rotate(45 230.71 408.711)" stroke="#FAFAFA" stroke-width="20"/>
<mask id="mask0_616_59" style="mask-type:alpha" maskUnits="userSpaceOnUse" x="-131" y="-117" width="564" height="564">
<circle cx="151" cy="165" r="269.5" stroke="#FAFAFA" stroke-width="25"/>
</mask>
<g mask="url(#mask0_616_59)">
<rect x="270" y="158" width="593" height="426" fill="#FAFAFA"/>
</g>
</g>
<path d="M610.434 104.684H850.908V154.957H757.483V408H703.858V154.957H610.434V104.684ZM961.091 413.865C938.607 413.865 918.568 408.978 900.972 399.202C883.376 389.287 869.621 375.671 859.706 358.355C849.931 341.039 845.043 321.558 845.043 299.912C845.043 278.127 849.861 258.576 859.497 241.26C869.272 223.943 882.608 210.397 899.506 200.622C916.543 190.847 935.675 185.959 956.901 185.959C977.988 185.959 996.771 190.847 1013.25 200.622C1029.73 210.258 1042.51 223.734 1051.58 241.05C1060.8 258.227 1065.41 277.708 1065.41 299.493C1065.41 307.313 1065.13 313.039 1064.57 316.67H897.411C898.947 327.423 902.648 336.849 908.513 344.949C914.378 353.048 921.85 359.333 930.927 363.801C940.144 368.13 950.338 370.295 961.51 370.295C973.659 370.295 984.133 367.642 992.931 362.335C1001.73 356.889 1008.43 349.348 1013.04 339.712L1057.87 357.308C1049.07 375.043 1036.36 388.938 1019.74 398.993C1003.12 408.908 983.574 413.865 961.091 413.865ZM1011.99 275.194C1011.15 266.536 1008.29 258.786 1003.4 251.943C998.517 244.96 992.023 239.514 983.923 235.604C975.963 231.554 966.956 229.529 956.901 229.529C942.378 229.529 929.879 233.649 919.406 241.888C908.932 250.127 902.02 261.229 898.668 275.194H1011.99ZM1208.69 366.524C1220.14 366.524 1230.33 363.731 1239.27 358.146C1248.35 352.42 1255.4 344.53 1260.43 334.475C1265.59 324.281 1268.18 312.76 1268.18 299.912C1268.18 287.064 1265.59 275.613 1260.43 265.559C1255.4 255.364 1248.35 247.474 1239.27 241.888C1230.33 236.163 1220.14 233.3 1208.69 233.3C1197.1 233.3 1186.76 236.163 1177.69 241.888C1168.61 247.614 1161.49 255.504 1156.32 265.559C1151.29 275.613 1148.78 287.064 1148.78 299.912C1148.78 312.76 1151.29 324.211 1156.32 334.266C1161.49 344.32 1168.61 352.21 1177.69 357.936C1186.76 363.662 1197.1 366.524 1208.69 366.524ZM1266.5 408V376.998H1264.83C1257.84 389.147 1248.77 398.364 1237.59 404.648C1226.42 410.793 1213.44 413.865 1198.63 413.865C1179.22 413.865 1161.77 408.908 1146.26 398.993C1130.9 389.078 1118.82 375.462 1110.03 358.146C1101.23 340.829 1096.83 321.418 1096.83 299.912C1096.83 278.406 1101.23 258.995 1110.03 241.679C1118.82 224.362 1130.9 210.747 1146.26 200.832C1161.77 190.917 1179.22 185.959 1198.63 185.959C1213.44 185.959 1226.42 189.101 1237.59 195.385C1248.77 201.53 1257.84 210.677 1264.83 222.826H1266.5V191.824H1318.03V408H1266.5ZM1370.82 191.824H1421.93V223.664H1423.4C1428.84 211.934 1436.87 202.717 1447.49 196.014C1458.24 189.311 1470.67 185.959 1484.77 185.959C1500.27 185.959 1513.47 189.939 1524.36 197.899C1535.26 205.719 1543.42 216.961 1548.87 231.624H1550.13C1554.74 217.52 1562.91 206.417 1574.64 198.318C1586.51 190.079 1600.54 185.959 1616.74 185.959C1632.1 185.959 1645.3 189.66 1656.33 197.061C1667.5 204.462 1675.95 215.146 1681.68 229.11C1687.54 242.936 1690.47 259.414 1690.47 278.546V408H1638.94V286.925C1639.08 269.888 1635.8 256.761 1629.1 247.544C1622.54 238.188 1613.25 233.439 1601.24 233.3C1593 233.439 1585.46 235.744 1578.62 240.212C1571.91 244.542 1566.54 251.314 1562.49 260.531C1558.44 269.608 1556.41 280.92 1556.41 294.466V408H1504.88V286.925C1504.88 269.888 1501.53 256.761 1494.83 247.544C1488.26 238.188 1478.91 233.439 1466.76 233.3C1458.52 233.439 1451.05 235.813 1444.34 240.422C1437.64 244.891 1432.19 251.803 1428.01 261.16C1423.96 270.376 1421.93 281.897 1421.93 295.723V408H1370.82V191.824ZM1848.42 413.865C1825.93 413.865 1805.89 408.978 1788.3 399.202C1770.7 389.287 1756.95 375.671 1747.03 358.355C1737.26 341.039 1732.37 321.558 1732.37 299.912C1732.37 278.127 1737.19 258.576 1746.82 241.26C1756.6 223.943 1769.93 210.397 1786.83 200.622C1803.87 190.847 1823 185.959 1844.23 185.959C1865.31 185.959 1884.1 190.847 1900.58 200.622C1917.05 210.258 1929.83 223.734 1938.91 241.05C1948.13 258.227 1952.73 277.708 1952.73 299.493C1952.73 307.313 1952.46 313.039 1951.9 316.67H1784.74C1786.27 327.423 1789.97 336.849 1795.84 344.949C1801.7 353.048 1809.18 359.333 1818.25 363.801C1827.47 368.13 1837.66 370.295 1848.84 370.295C1860.99 370.295 1871.46 367.642 1880.26 362.335C1889.05 356.889 1895.76 349.348 1900.37 339.712L1945.19 357.308C1936.4 375.043 1923.69 388.938 1907.07 398.993C1890.45 408.908 1870.9 413.865 1848.42 413.865ZM1899.32 275.194C1898.48 266.536 1895.62 258.786 1890.73 251.943C1885.84 244.96 1879.35 239.514 1871.25 235.604C1863.29 231.554 1854.28 229.529 1844.23 229.529C1829.7 229.529 1817.21 233.649 1806.73 241.888C1796.26 250.127 1789.35 261.229 1785.99 275.194H1899.32ZM1995.05 104.684H2046.16V408H1995.05V104.684ZM2098.95 104.684H2150.06V408H2098.95V104.684ZM2305.07 413.865C2283.98 413.865 2264.78 408.908 2247.46 398.993C2230.29 389.078 2216.74 375.462 2206.82 358.146C2196.91 340.689 2191.95 321.278 2191.95 299.912C2191.95 278.546 2196.91 259.205 2206.82 241.888C2216.74 224.432 2230.29 210.747 2247.46 200.832C2264.78 190.917 2283.98 185.959 2305.07 185.959C2326.15 185.959 2345.29 190.917 2362.46 200.832C2379.78 210.747 2393.4 224.432 2403.31 241.888C2413.23 259.205 2418.18 278.546 2418.18 299.912C2418.18 321.278 2413.23 340.689 2403.31 358.146C2393.4 375.462 2379.78 389.078 2362.46 398.993C2345.29 408.908 2326.15 413.865 2305.07 413.865ZM2305.07 366.524C2317.22 366.524 2328.04 363.731 2337.54 358.146C2347.03 352.42 2354.43 344.53 2359.74 334.475C2365.19 324.281 2367.91 312.76 2367.91 299.912C2367.91 287.064 2365.19 275.613 2359.74 265.559C2354.43 255.364 2347.03 247.474 2337.54 241.888C2328.04 236.163 2317.22 233.3 2305.07 233.3C2292.92 233.3 2282.1 236.163 2272.6 241.888C2263.1 247.474 2255.63 255.364 2250.19 265.559C2244.88 275.613 2242.23 287.064 2242.23 299.912C2242.23 312.76 2244.88 324.281 2250.19 334.475C2255.63 344.53 2263.1 352.42 2272.6 358.146C2282.1 363.731 2292.92 366.524 2305.07 366.524Z" fill="#0056A4"/>
<defs>
<clipPath id="clip0_616_59">
<rect width="512" height="512" rx="50" fill="white"/>
</clipPath>
</defs>
</svg>
